# 3ds Max Wavefront OBJ Exporter v0.97b - (c)2007 guruware
# File Created: 07.04.2017 17:35:27

mtllib crushing weight.mtl

#
# object Crushing_Weight
#

v  109.8495 53.6579 402.8192
v  109.8495 53.6579 574.9142
v  122.5067 6.5563 574.9142
v  122.5067 6.5563 402.8192
v  80.1308 92.3304 402.8192
v  80.1308 92.3304 574.9142
v  37.8750 116.6863 402.8192
v  37.8750 116.6863 574.9142
v  -10.4849 123.0176 402.8192
v  -10.4849 123.0176 574.9142
v  -57.5865 110.3604 402.8192
v  -57.5865 110.3604 574.9142
v  -96.2590 80.6417 402.8192
v  -96.2590 80.6417 574.9142
v  -120.6149 38.3859 402.8192
v  -120.6149 38.3859 574.9142
v  -126.9462 -9.9740 402.8192
v  -126.9462 -9.9740 574.9142
v  -114.2890 -57.0756 402.8192
v  -114.2890 -57.0756 574.9142
v  -84.5703 -95.7481 402.8192
v  -84.5703 -95.7481 574.9142
v  -42.3145 -120.1040 402.8192
v  -42.3145 -120.1040 574.9142
v  6.0454 -126.4353 402.8192
v  6.0454 -126.4353 574.9142
v  53.1470 -113.7781 402.8192
v  53.1470 -113.7781 574.9142
v  91.8195 -84.0594 402.8192
v  91.8195 -84.0594 574.9142
v  116.1754 -41.8035 402.8192
v  116.1754 -41.8035 574.9142
v  113.7431 -40.9798 401.3667
v  89.8876 -82.3675 401.3667
v  52.0096 -111.4757 401.3667
v  5.8756 -123.8729 401.3667
v  -41.4908 -117.6717 401.3667
v  -82.8785 -93.8161 401.3667
v  -111.9866 -55.9381 401.3667
v  -124.3838 -9.8042 401.3667
v  -118.1826 37.5622 401.3667
v  -94.3271 78.9499 401.3667
v  -56.4491 108.0580 401.3667
v  -10.3151 120.4552 401.3667
v  37.0513 114.2540 401.3667
v  78.4390 90.3985 401.3667
v  107.5471 52.5204 401.3667
v  119.9443 6.3865 401.3667
v  119.9443 6.3865 576.3667
v  107.5471 52.5204 576.3667
v  78.4390 90.3985 576.3667
v  37.0513 114.2540 576.3667
v  -10.3151 120.4552 576.3667
v  -56.4491 108.0580 576.3667
v  -94.3271 78.9499 576.3667
v  -118.1826 37.5622 576.3667
v  -124.3838 -9.8042 576.3667
v  -111.9866 -55.9381 576.3667
v  -82.8785 -93.8161 576.3667
v  -41.4908 -117.6717 576.3667
v  5.8756 -123.8729 576.3667
v  52.0096 -111.4757 576.3667
v  89.8876 -82.3675 576.3667
v  113.7431 -40.9798 576.3667
# 64 vertices

vn 0.7873 0.3890 -0.4784
vn 0.7873 0.3890 0.4784
vn 0.8762 0.0581 0.4784
vn 0.8762 0.0581 -0.4784
vn 0.5785 0.6607 -0.4784
vn 0.5785 0.6607 0.4784
vn 0.2817 0.8318 -0.4784
vn 0.2817 0.8318 0.4784
vn -0.0581 0.8762 -0.4784
vn -0.0581 0.8762 0.4784
vn -0.3890 0.7873 -0.4784
vn -0.3890 0.7873 0.4784
vn -0.6607 0.5785 -0.4784
vn -0.6607 0.5785 0.4784
vn -0.8318 0.2817 -0.4784
vn -0.8318 0.2817 0.4784
vn -0.8762 -0.0581 -0.4784
vn -0.8762 -0.0581 0.4784
vn -0.7873 -0.3890 -0.4784
vn -0.7873 -0.3890 0.4784
vn -0.5785 -0.6607 -0.4784
vn -0.5785 -0.6607 0.4784
vn -0.2817 -0.8318 -0.4784
vn -0.2817 -0.8318 0.4784
vn 0.0581 -0.8762 -0.4784
vn 0.0581 -0.8762 0.4784
vn 0.3890 -0.7873 -0.4784
vn 0.3890 -0.7873 0.4784
vn 0.6607 -0.5785 -0.4784
vn 0.6607 -0.5785 0.4784
vn 0.8318 -0.2817 -0.4784
vn 0.8318 -0.2817 0.4784
vn 0.0000 0.0000 -1.0000
vn 0.0000 0.0000 1.0000
vn 0.4414 0.2181 0.8704
vn 0.4912 0.0326 0.8704
vn 0.4912 0.0326 -0.8704
vn 0.4414 0.2181 -0.8704
vn 0.3243 0.3704 0.8704
vn 0.3243 0.3704 -0.8704
vn 0.1579 0.4663 0.8704
vn 0.1579 0.4663 -0.8704
vn -0.0326 0.4912 0.8704
vn -0.0326 0.4912 -0.8704
vn -0.2181 0.4414 0.8704
vn -0.2181 0.4414 -0.8704
vn -0.3704 0.3243 0.8704
vn -0.3704 0.3243 -0.8704
vn -0.4663 0.1579 0.8704
vn -0.4663 0.1579 -0.8704
vn -0.4912 -0.0326 0.8704
vn -0.4912 -0.0326 -0.8704
vn -0.4414 -0.2181 0.8704
vn -0.4414 -0.2181 -0.8704
vn -0.3243 -0.3704 0.8704
vn -0.3243 -0.3704 -0.8704
vn -0.1579 -0.4663 0.8704
vn -0.1579 -0.4663 -0.8704
vn 0.0326 -0.4912 0.8704
vn 0.0326 -0.4912 -0.8704
vn 0.2181 -0.4414 0.8704
vn 0.2181 -0.4414 -0.8704
vn 0.3704 -0.3243 0.8704
vn 0.3704 -0.3243 -0.8704
vn 0.4663 -0.1579 0.8704
vn 0.4663 -0.1579 -0.8704
# 66 vertex normals

vt 0.8125 0.0083 1.0000
vt 0.8125 0.9917 1.0000
vt 0.7500 0.9917 1.0000
vt 0.7500 0.0083 1.0000
vt 0.8750 0.0083 1.0000
vt 0.8750 0.9917 1.0000
vt 0.9375 0.0083 1.0000
vt 0.9375 0.9917 1.0000
vt 1.0000 0.0083 1.0000
vt 1.0000 0.9917 1.0000
vt 0.0625 0.0083 1.0000
vt 0.0625 0.9917 1.0000
vt 0.0000 0.9917 1.0000
vt 0.0000 0.0083 1.0000
vt 0.1250 0.0083 1.0000
vt 0.1250 0.9917 1.0000
vt 0.1875 0.0083 1.0000
vt 0.1875 0.9917 1.0000
vt 0.2500 0.0083 1.0000
vt 0.2500 0.9917 1.0000
vt 0.3125 0.0083 1.0000
vt 0.3125 0.9917 1.0000
vt 0.3750 0.0083 1.0000
vt 0.3750 0.9917 1.0000
vt 0.4375 0.0083 1.0000
vt 0.4375 0.9917 1.0000
vt 0.5000 0.0083 1.0000
vt 0.5000 0.9917 1.0000
vt 0.5625 0.0083 1.0000
vt 0.5625 0.9917 1.0000
vt 0.6250 0.0083 1.0000
vt 0.6250 0.9917 1.0000
vt 0.6875 0.0083 1.0000
vt 0.6875 0.9917 1.0000
vt 0.6913 0.9619 -0.2500
vt 0.8536 0.8536 -0.2500
vt 0.9619 0.6913 -0.2500
vt 1.0000 0.5000 -0.2500
vt 0.9619 0.3087 -0.2500
vt 0.8536 0.1464 -0.2500
vt 0.6913 0.0381 -0.2500
vt 0.5000 0.0000 -0.2500
vt 0.3087 0.0381 -0.2500
vt 0.1464 0.1464 -0.2500
vt 0.0381 0.3087 -0.2500
vt 0.0000 0.5000 -0.2500
vt 0.0381 0.6913 -0.2500
vt 0.1464 0.8536 -0.2500
vt 0.3087 0.9619 -0.2500
vt 0.5000 1.0000 -0.2500
vt 0.5000 1.0000 0.2500
vt 0.3087 0.9619 0.2500
vt 0.1464 0.8536 0.2500
vt 0.0381 0.6913 0.2500
vt 0.0000 0.5000 0.2500
vt 0.0381 0.3087 0.2500
vt 0.1464 0.1464 0.2500
vt 0.3087 0.0381 0.2500
vt 0.5000 0.0000 0.2500
vt 0.6913 0.0381 0.2500
vt 0.8536 0.1464 0.2500
vt 0.9619 0.3087 0.2500
vt 1.0000 0.5000 0.2500
vt 0.9619 0.6913 0.2500
vt 0.8536 0.8536 0.2500
vt 0.6913 0.9619 0.2500
vt 0.8125 1.0000 1.0000
vt 0.7500 1.0000 1.0000
vt 0.7500 0.0000 1.0000
vt 0.8125 0.0000 1.0000
vt 0.8750 1.0000 1.0000
vt 0.8750 0.0000 1.0000
vt 0.9375 1.0000 1.0000
vt 0.9375 0.0000 1.0000
vt 1.0000 1.0000 1.0000
vt 1.0000 0.0000 1.0000
vt 0.0625 1.0000 1.0000
vt 0.0000 1.0000 1.0000
vt 0.0000 0.0000 1.0000
vt 0.0625 0.0000 1.0000
vt 0.1250 1.0000 1.0000
vt 0.1250 0.0000 1.0000
vt 0.1875 1.0000 1.0000
vt 0.1875 0.0000 1.0000
vt 0.2500 1.0000 1.0000
vt 0.2500 0.0000 1.0000
vt 0.3125 1.0000 1.0000
vt 0.3125 0.0000 1.0000
vt 0.3750 1.0000 1.0000
vt 0.3750 0.0000 1.0000
vt 0.4375 1.0000 1.0000
vt 0.4375 0.0000 1.0000
vt 0.5000 1.0000 1.0000
vt 0.5000 0.0000 1.0000
vt 0.5625 1.0000 1.0000
vt 0.5625 0.0000 1.0000
vt 0.6250 1.0000 1.0000
vt 0.6250 0.0000 1.0000
vt 0.6875 1.0000 1.0000
vt 0.6875 0.0000 1.0000
# 100 texture coords

g Crushing_Weight
usemtl wire_086086086
s 8
f 1/1/1 2/2/2 3/3/3 4/4/4 
f 5/5/5 6/6/6 2/2/2 1/1/1 
f 7/7/7 8/8/8 6/6/6 5/5/5 
f 9/9/9 10/10/10 8/8/8 7/7/7 
f 11/11/11 12/12/12 10/13/10 9/14/9 
f 13/15/13 14/16/14 12/12/12 11/11/11 
f 15/17/15 16/18/16 14/16/14 13/15/13 
f 17/19/17 18/20/18 16/18/16 15/17/15 
f 19/21/19 20/22/20 18/20/18 17/19/17 
f 21/23/21 22/24/22 20/22/20 19/21/19 
f 23/25/23 24/26/24 22/24/22 21/23/21 
f 25/27/25 26/28/26 24/26/24 23/25/23 
f 27/29/27 28/30/28 26/28/26 25/27/25 
f 29/31/29 30/32/30 28/30/28 27/29/27 
f 31/33/31 32/34/32 30/32/30 29/31/29 
f 4/4/4 3/3/3 32/34/32 31/33/31 
s 1
f 33/35/33 34/36/33 35/37/33 36/38/33 37/39/33 38/40/33 39/41/33 40/42/33 41/43/33 42/44/33 43/45/33 44/46/33 45/47/33 46/48/33 47/49/33 48/50/33 
f 49/51/34 50/52/34 51/53/34 52/54/34 53/55/34 54/56/34 55/57/34 56/58/34 57/59/34 58/60/34 59/61/34 60/62/34 61/63/34 62/64/34 63/65/34 64/66/34 
s 8
f 2/2/2 50/67/35 49/68/36 3/3/3 
f 4/4/4 48/69/37 47/70/38 1/1/1 
f 6/6/6 51/71/39 50/67/35 2/2/2 
f 1/1/1 47/70/38 46/72/40 5/5/5 
f 8/8/8 52/73/41 51/71/39 6/6/6 
f 5/5/5 46/72/40 45/74/42 7/7/7 
f 10/10/10 53/75/43 52/73/41 8/8/8 
f 7/7/7 45/74/42 44/76/44 9/9/9 
f 12/12/12 54/77/45 53/78/43 10/13/10 
f 9/14/9 44/79/44 43/80/46 11/11/11 
f 14/16/14 55/81/47 54/77/45 12/12/12 
f 11/11/11 43/80/46 42/82/48 13/15/13 
f 16/18/16 56/83/49 55/81/47 14/16/14 
f 13/15/13 42/82/48 41/84/50 15/17/15 
f 18/20/18 57/85/51 56/83/49 16/18/16 
f 15/17/15 41/84/50 40/86/52 17/19/17 
f 20/22/20 58/87/53 57/85/51 18/20/18 
f 17/19/17 40/86/52 39/88/54 19/21/19 
f 22/24/22 59/89/55 58/87/53 20/22/20 
f 19/21/19 39/88/54 38/90/56 21/23/21 
f 24/26/24 60/91/57 59/89/55 22/24/22 
f 21/23/21 38/90/56 37/92/58 23/25/23 
f 26/28/26 61/93/59 60/91/57 24/26/24 
f 23/25/23 37/92/58 36/94/60 25/27/25 
f 28/30/28 62/95/61 61/93/59 26/28/26 
f 25/27/25 36/94/60 35/96/62 27/29/27 
f 30/32/30 63/97/63 62/95/61 28/30/28 
f 27/29/27 35/96/62 34/98/64 29/31/29 
f 32/34/32 64/99/65 63/97/63 30/32/30 
f 29/31/29 34/98/64 33/100/66 31/33/31 
f 3/3/3 49/68/36 64/99/65 32/34/32 
f 31/33/31 33/100/66 48/69/37 4/4/4 
# 50 polygons

