# 3ds Max Wavefront OBJ Exporter v0.97b - (c)2007 guruware
# File Created: 07.04.2017 18:00:03

#
# object Obelisk_Piece_4
#

v  -30.3380 65.9514 -2.7302
v  -30.3673 67.5191 -2.7302
v  -31.9351 67.4898 -2.7302
v  -31.9057 65.9220 -2.7302
v  -29.9260 65.5545 -4.6909
v  -31.8982 65.5176 -4.6909
v  -31.9351 67.4898 -4.6909
v  -29.9629 67.5267 -4.6909
v  -33.4735 65.8927 -2.7302
v  -33.5028 67.4605 -2.7302
v  -33.9072 67.4529 -4.6909
v  -33.8703 65.4808 -4.6909
v  -33.5322 69.0282 -2.7302
v  -31.9644 69.0576 -2.7302
v  -31.9720 69.4619 -4.6909
v  -33.9441 69.4250 -4.6909
v  -30.3966 69.0869 -2.7302
v  -29.9998 69.4988 -4.6909
# 18 vertices

vn -0.0000 -0.0000 1.0000
vn 0.0000 0.0000 -1.0000
vn 0.0183 -0.9792 0.2020
vn -0.9792 -0.0183 0.2020
vn -0.0183 0.9792 0.2020
vn 0.9792 0.0183 0.2020
vn 0.0000 0.0000 1.0000
# 7 vertex normals

vt 1.0000 0.0000 0.0000
vt 1.0000 0.5000 0.0000
vt 0.5000 0.5000 0.0000
vt 0.5000 0.0000 0.0000
vt 0.0000 0.0000 0.0000
vt 0.0000 0.5000 0.0000
vt 0.5000 1.0000 0.0000
vt 0.0000 1.0000 0.0000
vt 1.0000 1.0000 0.0000
# 9 texture coords

g Obelisk_Piece_4
s 2
f 1/1/1 2/2/1 3/3/1 4/4/1 
s 4
f 5/5/2 6/4/2 7/3/2 8/6/2 
s 8
f 1/5/3 4/4/3 6/7/3 5/8/3 
s 16
f 9/5/4 10/4/4 11/7/4 12/8/4 
s 32
f 13/5/5 14/4/5 15/7/5 16/8/5 
s 64
f 17/5/6 2/4/6 8/7/6 18/8/6 
s 2
f 2/2/1 17/9/1 14/7/1 3/3/1 
s 4
f 11/2/2 16/9/2 15/7/2 7/3/2 
s 16
f 10/4/4 13/1/4 16/9/4 11/7/4 
s 64
f 2/4/6 1/1/6 5/9/6 8/7/6 
s 2
f 3/3/1 10/6/7 9/5/7 4/4/1 
s 4
f 6/4/2 12/1/2 11/2/2 7/3/2 
s 8
f 4/4/3 9/1/3 12/9/3 6/7/3 
s 32
f 14/4/5 17/1/5 18/9/5 15/7/5 
s 2
f 14/7/1 13/8/7 10/6/7 3/3/1 
s 4
f 15/7/2 18/8/2 8/6/2 7/3/2 
# 16 polygons

