# 3ds Max Wavefront OBJ Exporter v0.97b - (c)2007 guruware
# File Created: 07.04.2017 17:34:30

mtllib throne steps.mtl

#
# object Throne_Steps
#

v  -18.2212 77.9503 -24.8416
v  15.7879 78.0364 -24.8416
v  15.7991 73.6364 -24.8416
v  -18.2100 73.5503 -24.8416
v  -18.2101 73.5503 -21.8416
v  15.7991 73.6364 -21.8416
v  15.7879 78.0364 -21.8416
v  -18.2212 77.9503 -21.8416
v  23.7944 73.6566 -24.8416
v  23.7833 78.0566 -24.8416
v  23.7833 78.0566 -21.8416
v  23.7944 73.6566 -21.8416
v  15.6978 113.6363 -24.8416
v  -18.3113 113.5502 -24.8416
v  -18.3113 113.5502 -21.8416
v  15.6978 113.6363 -21.8416
v  -26.3067 113.5299 -24.8416
v  -26.2265 81.8460 -24.8416
v  -26.2265 81.8460 -21.8416
v  -26.3067 113.5299 -21.8416
v  15.7780 81.9524 -24.8416
v  -18.2311 81.8663 -24.8416
v  15.6978 113.6363 -15.8416
v  -18.3113 113.5502 -15.8416
v  -18.2311 81.8663 -15.8416
v  15.7780 81.9524 -15.8416
v  23.7734 81.9726 -24.8416
v  23.7734 81.9726 -21.8416
v  -26.2165 77.9301 -24.8416
v  -26.2054 73.5301 -24.8416
v  -26.2054 73.5301 -21.8416
v  -26.2165 77.9301 -21.8416
v  19.4016 78.0455 -24.8416
v  19.4128 73.6456 -24.8416
v  -21.8237 73.5412 -24.8416
v  -21.8349 77.9411 -24.8416
v  19.4128 73.6456 -21.8416
v  19.4016 78.0455 -21.8416
v  -21.8349 77.9411 -21.8416
v  -21.8237 73.5412 -21.8416
v  -21.9250 113.5410 -24.8416
v  -21.9250 113.5410 -21.8416
v  19.3115 113.6454 -21.8416
v  23.6932 113.6565 -21.8416
v  23.6932 113.6565 -24.8416
v  19.3115 113.6454 -24.8416
v  19.3917 81.9615 -24.8416
v  -21.8448 81.8571 -24.8416
v  -21.8448 81.8571 -21.8416
v  19.3917 81.9615 -21.8416
v  -18.3113 113.5502 -18.8416
v  15.6978 113.6363 -18.8416
v  -21.8448 81.8571 -18.8416
v  -21.9250 113.5410 -18.8416
v  15.7879 78.0364 -18.8416
v  -18.2212 77.9503 -18.8416
v  19.3917 81.9615 -18.8416
v  19.4016 78.0455 -18.8416
v  -18.2311 81.8663 -18.8416
v  15.7780 81.9524 -18.8416
v  19.3115 113.6454 -18.8416
v  -21.8349 77.9411 -18.8416
# 62 vertices

vn 0.0000 0.0000 -1.0000
vn 0.0000 0.0000 1.0000
vn 0.0025 -1.0000 0.0000
vn 1.0000 0.0025 0.0000
vn -0.0025 1.0000 0.0000
vn -1.0000 -0.0025 0.0000
# 6 vertex normals

vt 0.8401 0.1100 0.0000
vt 0.1599 0.1100 0.0000
vt 0.1599 0.0000 0.0000
vt 0.8401 0.0000 0.0000
vt 0.8401 1.0000 0.0000
vt 0.1599 1.0000 0.0000
vt 0.0000 0.0000 0.0000
vt 0.1100 0.0000 0.0000
vt 0.1100 1.0000 0.0000
vt 0.0000 1.0000 0.0000
vt 0.7921 0.0000 0.0000
vt 0.7921 1.0000 0.0000
vt 0.1599 0.2079 0.0000
vt 0.8401 0.2079 0.0000
vt 0.2079 0.0000 0.0000
vt 0.2079 1.0000 0.0000
vt 0.8900 0.0000 0.0000
vt 1.0000 0.0000 0.0000
vt 1.0000 1.0000 0.0000
vt 0.8900 1.0000 0.0000
vt 0.0876 0.1100 0.0000
vt 0.0000 0.1100 0.0000
vt 0.0876 0.0000 0.0000
vt 0.9124 0.0000 0.0000
vt 1.0000 0.1100 0.0000
vt 0.9124 0.1100 0.0000
vt 0.9124 1.0000 0.0000
vt 0.0876 1.0000 0.0000
vt 0.0000 0.2079 0.0000
vt 0.0876 0.2079 0.0000
vt 1.0000 0.2079 0.0000
vt 0.9124 0.2079 0.0000
# 32 texture coords

g Throne_Steps
usemtl wire_135110008
s 2
f 1/1/1 2/2/1 3/3/1 4/4/1 
s 4
f 5/3/2 6/4/2 7/1/2 8/2/2 
s 8
f 4/3/3 3/4/3 6/5/3 5/6/3 
s 16
f 9/7/4 10/8/4 11/9/4 12/10/4 
s 32
f 13/3/5 14/4/5 15/5/5 16/6/5 
s 64
f 17/7/6 18/11/6 19/12/6 20/10/6 
s 2
f 14/5/1 13/6/1 21/13/1 22/14/1 
s 4
f 23/5/2 24/6/2 25/13/2 26/14/2 
s 16
f 10/8/4 27/15/4 28/16/4 11/9/4 
s 64
f 29/17/6 30/18/6 31/19/6 32/20/6 
s 2
f 33/21/1 10/22/1 9/7/1 34/23/1 
f 35/24/1 30/18/1 29/25/1 36/26/1 
s 4
f 37/24/2 12/18/2 11/25/2 38/26/2 
f 39/21/2 32/22/2 31/7/2 40/23/2 
s 8
f 34/24/3 9/18/3 12/19/3 37/27/3 
f 40/28/3 31/10/3 30/7/3 35/23/3 
s 32
f 41/24/5 17/18/5 20/19/5 42/27/5 
f 43/28/5 44/10/5 45/7/5 46/23/5 
s 2
f 46/28/1 45/10/1 27/29/1 47/30/1 
f 36/26/1 29/25/1 18/31/1 48/32/1 
s 4
f 42/28/2 20/10/2 19/29/2 49/30/2 
f 38/26/2 11/25/2 28/31/2 50/32/2 
s off
f 16/5/5 15/6/5 51/6/5 52/5/5 
f 42/28/6 49/30/6 53/30/6 54/28/6 
f 8/2/3 7/1/3 55/1/3 56/2/3 
f 38/26/4 50/32/4 57/32/4 58/26/4 
s 2
f 2/2/1 33/21/1 34/23/1 3/3/1 
f 4/4/1 35/24/1 36/26/1 1/1/1 
s 4
f 6/4/2 37/24/2 38/26/2 7/1/2 
f 8/2/2 39/21/2 40/23/2 5/3/2 
s 8
f 3/4/3 34/24/3 37/27/3 6/5/3 
f 5/6/3 40/28/3 35/23/3 4/3/3 
s 32
f 14/4/5 41/24/5 42/27/5 15/5/5 
f 16/6/5 43/28/5 46/23/5 13/3/5 
s 2
f 13/6/1 46/28/1 47/30/1 21/13/1 
f 1/1/1 36/26/1 48/32/1 22/14/1 
s 4
f 51/6/2 54/28/2 53/30/2 59/13/2 
f 55/1/2 58/26/2 57/32/2 60/14/2 
s off
f 15/6/5 42/28/5 54/28/5 51/6/5 
f 52/5/5 61/27/5 43/27/5 16/5/5 
f 7/1/3 38/26/3 58/26/3 55/1/3 
f 56/2/3 62/21/3 39/21/3 8/2/3 
s 64
f 18/11/6 29/17/6 32/20/6 19/12/6 
s 2
f 21/13/1 2/2/1 1/1/1 22/14/1 
s 4
f 59/13/2 56/2/2 55/1/2 60/14/2 
s 16
f 27/15/4 45/18/4 44/19/4 28/16/4 
s 2
f 27/29/1 10/22/1 33/21/1 47/30/1 
f 18/31/1 17/19/1 41/27/1 48/32/1 
s 4
f 19/29/2 32/22/2 39/21/2 49/30/2 
f 28/31/2 44/19/2 43/27/2 50/32/2 
s off
f 49/30/6 39/21/6 62/21/6 53/30/6 
f 50/32/4 43/27/4 61/27/4 57/32/4 
s 2
f 47/30/1 33/21/1 2/2/1 21/13/1 
f 48/32/1 41/27/1 14/5/1 22/14/1 
s 4
f 53/30/2 62/21/2 56/2/2 59/13/2 
f 57/32/2 61/27/2 52/5/2 60/14/2 
s off
f 52/5/5 51/6/5 24/6/5 23/5/5 
f 51/6/6 59/13/6 25/13/6 24/6/6 
f 59/13/3 60/14/3 26/14/3 25/13/3 
f 60/14/4 52/5/4 23/5/4 26/14/4 
# 60 polygons

